<?xml version="1.0" encoding="UTF-8" standalone="no"?>
<svg
   xmlns:dc="http://purl.org/dc/elements/1.1/"
   xmlns:cc="http://creativecommons.org/ns#"
   xmlns:rdf="http://www.w3.org/1999/02/22-rdf-syntax-ns#"
   xmlns:svg="http://www.w3.org/2000/svg"
   xmlns="http://www.w3.org/2000/svg"
   xmlns:sodipodi="http://sodipodi.sourceforge.net/DTD/sodipodi-0.dtd"
   xmlns:inkscape="http://www.inkscape.org/namespaces/inkscape"
   width="1920"
   height="380"
   version="1.1"
   viewBox="0 0 508 100.54"
   id="svg3801"
   sodipodi:docname="horizontal-zh.svg"
   inkscape:version="0.92.4 (5da689c313, 2019-01-14)">
  <metadata
     id="metadata3807">
    <rdf:RDF>
      <cc:Work
         rdf:about="">
        <dc:format>image/svg+xml</dc:format>
        <dc:type
           rdf:resource="http://purl.org/dc/dcmitype/StillImage" />
        <dc:title />
      </cc:Work>
    </rdf:RDF>
  </metadata>
  <defs
     id="defs3805" />
  <sodipodi:namedview
     pagecolor="#ffffff"
     bordercolor="#666666"
     borderopacity="1"
     objecttolerance="10"
     gridtolerance="10"
     guidetolerance="10"
     inkscape:pageopacity="0"
     inkscape:pageshadow="2"
     inkscape:window-width="1280"
     inkscape:window-height="737"
     id="namedview3803"
     showgrid="false"
     inkscape:zoom="0.34522221"
     inkscape:cx="952.75831"
     inkscape:cy="233.45028"
     inkscape:window-x="-8"
     inkscape:window-y="-8"
     inkscape:window-maximized="1"
     inkscape:current-layer="svg3801" />
  <g
     transform="translate(0 -196.46)"
     id="g3799">
    <path
       d="m45.813 196.46c-4.9486 0.2404-30.479 8.5091-42.251 14.888-1.6938 0.91832-3.5528 4.0713-3.5615 5.4544 0 12.656 3.047 31.326 11.656 47.913l16.845-16.837c-3.2563-8.2276-1.3156-17.604 4.9387-23.863 3.8052-3.6202 10.973-6.2916 17.201-6.4017 2.8306-0.05 5.4665 0.42947 7.5039 1.5896 1.1926 0.68857 0.63289 1.5773 0.27698 1.9332l-12.901 12.374c-1.6303 1.7514-0.21689 6.2431 0.83509 9.0976 2.8546 1.0521 7.3468 2.4644 9.0982 0.83406l12.374-12.899c0.35591-0.35591 1.2446-0.91564 1.9332 0.27698 3.7123 6.52 0.45205 19.17-4.8137 24.704-6.2595 6.2543-15.634 8.195-23.862 4.9387l-19.329 19.325c6.2847 7.281 14.195 13.367 24.054 17.213 35.648-13.908 45.813-57.085 45.813-80.199-0.01-1.3832-1.8677-4.5366-3.5615-5.4544-11.772-6.3788-37.301-14.647-42.25-14.888z"
       id="path3761"
       stroke-width=".86794"
       fill="#3498db" />
    <g
       transform="matrix(1.542 -1.542 1.542 1.542 -206.27 74.459)"
       id="g3769"
       fill="#fff">
      <g
         transform="rotate(90 84.232 171.06)"
         id="g3767"
         fill="#fff">
        <g
           transform="translate(3.5487 90.195)"
           id="g3765"
           fill="#fff">
          <path
             transform="matrix(.24077 -.24077 .24077 .24077 -195.37 -625.87)"
             d="m-1131 2116.8c0.3194 0.6158 0.6375 1.2141 0.9684 1.8254 1.3704 2.5314 2.8391 5.0227 4.4121 7.457 1.5731 2.4344 3.2495 4.8124 5.0352 7.1172 1.0233 1.3208 2.092 2.6283 3.1878 3.8981l26.029-26.025c11.08 4.3852 23.705 1.7722 32.135-6.6504 7.0913-7.4538 11.482-24.489 6.4824-33.27-0.9273-1.6061-2.1242-0.8523-2.6035-0.373l-16.664 17.371c-2.3586 2.1955-8.4077 0.2937-12.252-1.1231-1.4167-3.8442-3.3205-9.8933-1.125-12.252l17.373-16.664c0.4793-0.4793 1.233-1.6762-0.3731-2.6035-2.7438-1.5623-6.2935-2.208-10.105-2.1406-8.3861 0.1483-18.04 3.7458-23.164 8.6211-8.4226 8.4296-11.036 21.057-6.6504 32.137z"
             id="path3763"
             stroke-width=".67821"
             fill="#fff" />
        </g>
      </g>
    </g>
    <text
       xml:space="preserve"
       style="font-style:normal;font-weight:normal;font-size:10.58333302px;line-height:1.25;font-family:sans-serif;letter-spacing:0px;word-spacing:0px;fill:#3498db;fill-opacity:1;stroke:none;stroke-width:0.26458332"
       x="101.16649"
       y="274.39404"
       id="text3853"><tspan
         sodipodi:role="line"
         x="101.16649"
         y="274.39404"
         id="tspan3851"
         style="stroke-width:0.26458332"><tspan
           x="101.16649"
           y="274.39404"
           style="font-style:normal;font-variant:normal;font-weight:normal;font-stretch:normal;font-size:63.5px;font-family:'Microsoft YaHei';-inkscape-font-specification:'Microsoft YaHei';fill:#3498db;fill-opacity:1;stroke-width:0.26458332"
           id="tspan3849">網路隱私</tspan></tspan></text>
  </g>
  <g
     id="g3847"
     transform="translate(0 -196.46)"
     inkscape:label="(NULL) 複製">
    <path
       id="path3809"
       d="m45.813 196.46c-4.9486 0.2404-30.479 8.5091-42.251 14.888-1.6938 0.91832-3.5528 4.0713-3.5615 5.4544 0 12.656 3.047 31.326 11.656 47.913l16.845-16.837c-3.2563-8.2276-1.3156-17.604 4.9387-23.863 3.8052-3.6202 10.973-6.2916 17.201-6.4017 2.8306-0.05 5.4665 0.42947 7.5039 1.5896 1.1926 0.68857 0.63289 1.5773 0.27698 1.9332l-12.901 12.374c-1.6303 1.7514-0.21689 6.2431 0.83509 9.0976 2.8546 1.0521 7.3468 2.4644 9.0982 0.83406l12.374-12.899c0.35591-0.35591 1.2446-0.91564 1.9332 0.27698 3.7123 6.52 0.45205 19.17-4.8137 24.704-6.2595 6.2543-15.634 8.195-23.862 4.9387l-19.329 19.325c6.2847 7.281 14.195 13.367 24.054 17.213 35.648-13.908 45.813-57.085 45.813-80.199-0.01-1.3832-1.8677-4.5366-3.5615-5.4544-11.772-6.3788-37.301-14.647-42.25-14.888z"
       stroke-width=".86794"
       fill="#3498db" />
    <g
       id="g3817"
       transform="matrix(1.542 -1.542 1.542 1.542 -206.27 74.459)"
       fill="#fff">
      <g
         id="g3815"
         transform="rotate(90 84.232 171.06)"
         fill="#fff">
        <g
           id="g3813"
           transform="translate(3.5487 90.195)"
           fill="#fff">
          <path
             id="path3811"
             d="m-1131 2116.8c0.3194 0.6158 0.6375 1.2141 0.9684 1.8254 1.3704 2.5314 2.8391 5.0227 4.4121 7.457 1.5731 2.4344 3.2495 4.8124 5.0352 7.1172 1.0233 1.3208 2.092 2.6283 3.1878 3.8981l26.029-26.025c11.08 4.3852 23.705 1.7722 32.135-6.6504 7.0913-7.4538 11.482-24.489 6.4824-33.27-0.9273-1.6061-2.1242-0.8523-2.6035-0.373l-16.664 17.371c-2.3586 2.1955-8.4077 0.2937-12.252-1.1231-1.4167-3.8442-3.3205-9.8933-1.125-12.252l17.373-16.664c0.4793-0.4793 1.233-1.6762-0.3731-2.6035-2.7438-1.5623-6.2935-2.208-10.105-2.1406-8.3861 0.1483-18.04 3.7458-23.164 8.6211-8.4226 8.4296-11.036 21.057-6.6504 32.137z"
             transform="matrix(.24077 -.24077 .24077 .24077 -195.37 -625.87)"
             stroke-width=".67821"
             fill="#fff" />
        </g>
      </g>
    </g>
    <flowRoot
       xml:space="preserve"
       id="flowRoot3849"
       style="fill:black;fill-opacity:1;stroke:none;font-family:sans-serif;font-style:normal;font-weight:normal;font-size:40px;line-height:1.25;letter-spacing:0px;word-spacing:0px"><flowRegion
         id="flowRegion3851"><rect
           id="rect3853"
           width="608.30383"
           height="286.77182"
           x="1312.1984"
           y="-300.72098" /></flowRegion><flowPara
         id="flowPara3855" /></flowRoot>    <text
       xml:space="preserve"
       style="font-style:normal;font-weight:normal;font-size:10.58333302px;line-height:1.25;font-family:sans-serif;letter-spacing:0px;word-spacing:0px;fill:#8a9595;fill-opacity:1;stroke:none;stroke-width:0.26458332"
       x="360.98126"
       y="273.24197"
       id="text3859"><tspan
         sodipodi:role="line"
         id="tspan3857"
         x="360.98126"
         y="273.24197"
         style="font-style:normal;font-variant:normal;font-weight:normal;font-stretch:normal;font-size:63.5px;line-height:3.25;font-family:'Microsoft YaHei';-inkscape-font-specification:'Microsoft YaHei';fill:#8a9595;fill-opacity:1;stroke-width:0.26458332">工具</tspan></text>
    <text
       id="use3965"
       y="273.24197"
       x="360.98126"
       style="font-style:normal;font-weight:normal;font-size:10.58333302px;line-height:1.25;font-family:sans-serif;letter-spacing:0px;word-spacing:0px;fill:#8a9595;fill-opacity:1;stroke:none;stroke-width:0.26458332"
       xml:space="preserve"><tspan
         style="font-style:normal;font-variant:normal;font-weight:normal;font-stretch:normal;font-size:63.5px;line-height:3.25;font-family:'Microsoft YaHei';-inkscape-font-specification:'Microsoft YaHei';fill:#8a9595;fill-opacity:1;stroke-width:0.26458332"
         y="273.24197"
         x="360.98126"
         id="tspan3967"
         sodipodi:role="line">工具</tspan></text>
  </g>
  <g
     id="g3823">
    <flowRoot
       style="fill:black;fill-opacity:1;stroke:none;font-family:sans-serif;font-style:normal;font-weight:normal;font-size:40px;line-height:1.25;letter-spacing:0px;word-spacing:0px"
       id="flowRoot3811"
       xml:space="preserve"><flowRegion
         id="flowRegion3813"><rect
           y="20.81106"
           x="373.67236"
           height="315.73868"
           width="1454.1359"
           id="rect3815" /></flowRegion><flowPara
         id="flowPara3817"></flowPara></flowRoot>  </g>
  <flowRoot
     xml:space="preserve"
     id="flowRoot3825"
     style="fill:black;fill-opacity:1;stroke:none;font-family:sans-serif;font-style:normal;font-weight:normal;font-size:40px;line-height:1.25;letter-spacing:0px;word-spacing:0px"><flowRegion
       id="flowRegion3827"><rect
         id="rect3829"
         width="1326.6818"
         height="269.39169"
         x="440.29611"
         y="41.087852" /></flowRegion><flowPara
       id="flowPara3831"></flowPara></flowRoot>  <flowRoot
     xml:space="preserve"
     id="flowRoot3833"
     style="fill:black;fill-opacity:1;stroke:none;font-family:sans-serif;font-style:normal;font-weight:normal;font-size:40px;line-height:1.25;letter-spacing:0px;word-spacing:0px"><flowRegion
       id="flowRegion3835"><rect
         id="rect3837"
         width="1491.7927"
         height="280.97845"
         x="388.15579"
         y="55.571278" /></flowRegion><flowPara
       id="flowPara3839"></flowPara></flowRoot>  <flowRoot
     xml:space="preserve"
     id="flowRoot3841"
     style="fill:black;fill-opacity:1;stroke:none;font-family:sans-serif;font-style:normal;font-weight:normal;font-size:40px;line-height:1.25;letter-spacing:0px;word-spacing:0px"><flowRegion
       id="flowRegion3843"><rect
         id="rect3845"
         width="1474.4127"
         height="315.73868"
         x="385.25909"
         y="20.81106" /></flowRegion><flowPara
       id="flowPara3847"></flowPara></flowRoot></svg>
