<?xml version="1.0" encoding="UTF-8" standalone="no"?>
<svg
   xmlns:dc="http://purl.org/dc/elements/1.1/"
   xmlns:cc="http://creativecommons.org/ns#"
   xmlns:rdf="http://www.w3.org/1999/02/22-rdf-syntax-ns#"
   xmlns:svg="http://www.w3.org/2000/svg"
   xmlns="http://www.w3.org/2000/svg"
   xmlns:sodipodi="http://sodipodi.sourceforge.net/DTD/sodipodi-0.dtd"
   xmlns:inkscape="http://www.inkscape.org/namespaces/inkscape"
   width="1920"
   height="380"
   version="1.1"
   viewBox="0 0 508 100.54"
   id="svg3801"
   sodipodi:docname="zh.svg"
   inkscape:version="0.92.4 (5da689c313, 2019-01-14)">
  <metadata
     id="metadata3807">
    <rdf:RDF>
      <cc:Work
         rdf:about="">
        <dc:format>image/svg+xml</dc:format>
        <dc:type
           rdf:resource="http://purl.org/dc/dcmitype/StillImage" />
        <dc:title />
      </cc:Work>
    </rdf:RDF>
  </metadata>
  <defs
     id="defs3805" />
  <sodipodi:namedview
     pagecolor="#ffffff"
     bordercolor="#666666"
     borderopacity="1"
     objecttolerance="10"
     gridtolerance="10"
     guidetolerance="10"
     inkscape:pageopacity="0"
     inkscape:pageshadow="2"
     inkscape:window-width="1280"
     inkscape:window-height="737"
     id="namedview3803"
     showgrid="false"
     inkscape:zoom="0.33941126"
     inkscape:cx="623.67553"
     inkscape:cy="233.45028"
     inkscape:window-x="-8"
     inkscape:window-y="-8"
     inkscape:window-maximized="1"
     inkscape:current-layer="svg3801" />
  <g
     id="g3847"
     transform="translate(0 -196.46)"
     inkscape:label="(NULL) 複製">
    <path
       id="path3809"
       d="m45.813 196.46c-4.9486 0.2404-30.479 8.5091-42.251 14.888-1.6938 0.91832-3.5528 4.0713-3.5615 5.4544 0 12.656 3.047 31.326 11.656 47.913l16.845-16.837c-3.2563-8.2276-1.3156-17.604 4.9387-23.863 3.8052-3.6202 10.973-6.2916 17.201-6.4017 2.8306-0.05 5.4665 0.42947 7.5039 1.5896 1.1926 0.68857 0.63289 1.5773 0.27698 1.9332l-12.901 12.374c-1.6303 1.7514-0.21689 6.2431 0.83509 9.0976 2.8546 1.0521 7.3468 2.4644 9.0982 0.83406l12.374-12.899c0.35591-0.35591 1.2446-0.91564 1.9332 0.27698 3.7123 6.52 0.45205 19.17-4.8137 24.704-6.2595 6.2543-15.634 8.195-23.862 4.9387l-19.329 19.325c6.2847 7.281 14.195 13.367 24.054 17.213 35.648-13.908 45.813-57.085 45.813-80.199-0.01-1.3832-1.8677-4.5366-3.5615-5.4544-11.772-6.3788-37.301-14.647-42.25-14.888z"
       stroke-width=".86794"
       fill="#3498db" />
    <g
       id="g3817"
       transform="matrix(1.542 -1.542 1.542 1.542 -206.27 74.459)"
       fill="#fff">
      <g
         id="g3815"
         transform="rotate(90 84.232 171.06)"
         fill="#fff">
        <g
           id="g3813"
           transform="translate(3.5487 90.195)"
           fill="#fff">
          <path
             id="path3811"
             d="m-1131 2116.8c0.3194 0.6158 0.6375 1.2141 0.9684 1.8254 1.3704 2.5314 2.8391 5.0227 4.4121 7.457 1.5731 2.4344 3.2495 4.8124 5.0352 7.1172 1.0233 1.3208 2.092 2.6283 3.1878 3.8981l26.029-26.025c11.08 4.3852 23.705 1.7722 32.135-6.6504 7.0913-7.4538 11.482-24.489 6.4824-33.27-0.9273-1.6061-2.1242-0.8523-2.6035-0.373l-16.664 17.371c-2.3586 2.1955-8.4077 0.2937-12.252-1.1231-1.4167-3.8442-3.3205-9.8933-1.125-12.252l17.373-16.664c0.4793-0.4793 1.233-1.6762-0.3731-2.6035-2.7438-1.5623-6.2935-2.208-10.105-2.1406-8.3861 0.1483-18.04 3.7458-23.164 8.6211-8.4226 8.4296-11.036 21.057-6.6504 32.137z"
             transform="matrix(.24077 -.24077 .24077 .24077 -195.37 -625.87)"
             stroke-width=".67821"
             fill="#fff" />
        </g>
      </g>
    </g>
    <flowRoot
       xml:space="preserve"
       id="flowRoot3849"
       style="fill:black;fill-opacity:1;stroke:none;font-family:sans-serif;font-style:normal;font-weight:normal;font-size:40px;line-height:1.25;letter-spacing:0px;word-spacing:0px"><flowRegion
         id="flowRegion3851"><rect
           id="rect3853"
           width="608.30383"
           height="286.77182"
           x="1312.1984"
           y="-300.72098" /></flowRegion><flowPara
         id="flowPara3855" /></flowRoot>  </g>
  <path
     style="fill:#3498db;stroke-width:0.86794001"
     inkscape:connector-curvature="0"
     id="path3761"
     d="M 45.813,0 C 40.8644,0.2404 15.334,8.5091 3.562,14.888 1.8682,15.80632 0.0092,18.9593 5e-4,20.3424 c 0,12.656 3.047,31.326 11.656,47.913 l 16.845,-16.837 c -3.2563,-8.2276 -1.3156,-17.604 4.9387,-23.863 3.8052,-3.6202 10.973,-6.2916 17.201,-6.4017 2.8306,-0.05 5.4665,0.42947 7.5039,1.5896 1.1926,0.68857 0.63289,1.5773 0.27698,1.9332 l -12.901,12.374 c -1.6303,1.7514 -0.21689,6.2431 0.83509,9.0976 2.8546,1.0521 7.3468,2.4644 9.0982,0.83406 l 12.374,-12.899 c 0.35591,-0.35591 1.2446,-0.91564 1.9332,0.27698 3.7123,6.52 0.45205,19.17 -4.8137,24.704 -6.2595,6.2543 -15.634,8.195 -23.862,4.9387 l -19.329,19.325 c 6.2847,7.281 14.195,13.367 24.054,17.213 35.648,-13.908 45.813,-57.085 45.813,-80.199 -0.01,-1.3832 -1.8677,-4.5366 -3.5615,-5.4544 -11.772,-6.3788 -37.301,-14.647 -42.25,-14.888 z" />
  <g
     style="fill:#ffffff"
     id="g3769"
     transform="matrix(1.542,-1.542,1.542,1.542,-206.27,-122.001)">
    <g
       style="fill:#ffffff"
       id="g3767"
       transform="rotate(90,84.232,171.06)">
      <g
         style="fill:#ffffff"
         id="g3765"
         transform="translate(3.5487,90.195)">
        <path
           style="fill:#ffffff;stroke-width:0.67821002"
           inkscape:connector-curvature="0"
           id="path3763"
           d="m -1131,2116.8 c 0.3194,0.6158 0.6375,1.2141 0.9684,1.8254 1.3704,2.5314 2.8391,5.0227 4.4121,7.457 1.5731,2.4344 3.2495,4.8124 5.0352,7.1172 1.0233,1.3208 2.092,2.6283 3.1878,3.8981 l 26.029,-26.025 c 11.08,4.3852 23.705,1.7722 32.135,-6.6504 7.0913,-7.4538 11.482,-24.489 6.4824,-33.27 -0.9273,-1.6061 -2.1242,-0.8523 -2.6035,-0.373 l -16.664,17.371 c -2.3586,2.1955 -8.4077,0.2937 -12.252,-1.1231 -1.4167,-3.8442 -3.3205,-9.8933 -1.125,-12.252 l 17.373,-16.664 c 0.4793,-0.4793 1.233,-1.6762 -0.3731,-2.6035 -2.7438,-1.5623 -6.2935,-2.208 -10.105,-2.1406 -8.3861,0.1483 -18.04,3.7458 -23.164,8.6211 -8.4226,8.4296 -11.036,21.057 -6.6504,32.137 z"
           transform="matrix(0.24077,-0.24077,0.24077,0.24077,-195.37,-625.87)" />
      </g>
    </g>
  </g>
  <g
     id="g385"
     transform="matrix(0.94726308,0,0,0.94726308,-7.0647533,16.1169)">
    <text
       xml:space="preserve"
       style="font-style:normal;font-weight:normal;font-size:10.58333302px;line-height:1.25;font-family:sans-serif;letter-spacing:0px;word-spacing:0px;fill:#8a9595;fill-opacity:1;stroke:none;stroke-width:0.26458332"
       x="360.98126"
       y="273.24197"
       id="use3965"
       transform="translate(0,-196.46)"><tspan
         sodipodi:role="line"
         id="tspan3967"
         x="360.98126"
         y="273.24197"
         style="font-style:normal;font-variant:normal;font-weight:normal;font-stretch:normal;font-size:63.5px;line-height:3.25;font-family:'Microsoft YaHei';-inkscape-font-specification:'Microsoft YaHei';fill:#8a9595;fill-opacity:1;stroke-width:0.26458332">工具</tspan></text>
    <text
       xml:space="preserve"
       style="font-style:normal;font-weight:normal;font-size:10.58333302px;line-height:1.25;font-family:sans-serif;letter-spacing:0px;word-spacing:0px;fill:#3498db;fill-opacity:1;stroke:none;stroke-width:0.26458332"
       x="101.16649"
       y="77.934044"
       id="text3853"><tspan
         sodipodi:role="line"
         x="101.16649"
         y="77.934044"
         id="tspan3851"
         style="stroke-width:0.26458332"><tspan
           x="101.16649"
           y="77.934044"
           style="font-style:normal;font-variant:normal;font-weight:normal;font-stretch:normal;font-size:63.5px;font-family:'Microsoft YaHei';-inkscape-font-specification:'Microsoft YaHei';fill:#3498db;fill-opacity:1;stroke-width:0.26458332"
           id="tspan3849">網路隱私</tspan></tspan></text>
  </g>
  <g
     id="g3823">
    <flowRoot
       style="fill:black;fill-opacity:1;stroke:none;font-family:sans-serif;font-style:normal;font-weight:normal;font-size:40px;line-height:1.25;letter-spacing:0px;word-spacing:0px"
       id="flowRoot3811"
       xml:space="preserve"><flowRegion
         id="flowRegion3813"><rect
           y="20.81106"
           x="373.67236"
           height="315.73868"
           width="1454.1359"
           id="rect3815" /></flowRegion><flowPara
         id="flowPara3817" /></flowRoot>  </g>
  <flowRoot
     xml:space="preserve"
     id="flowRoot3825"
     style="fill:black;fill-opacity:1;stroke:none;font-family:sans-serif;font-style:normal;font-weight:normal;font-size:40px;line-height:1.25;letter-spacing:0px;word-spacing:0px"><flowRegion
       id="flowRegion3827"><rect
         id="rect3829"
         width="1326.6818"
         height="269.39169"
         x="440.29611"
         y="41.087852" /></flowRegion><flowPara
       id="flowPara3831" /></flowRoot>  <flowRoot
     xml:space="preserve"
     id="flowRoot3833"
     style="fill:black;fill-opacity:1;stroke:none;font-family:sans-serif;font-style:normal;font-weight:normal;font-size:40px;line-height:1.25;letter-spacing:0px;word-spacing:0px"><flowRegion
       id="flowRegion3835"><rect
         id="rect3837"
         width="1491.7927"
         height="280.97845"
         x="388.15579"
         y="55.571278" /></flowRegion><flowPara
       id="flowPara3839" /></flowRoot>  <flowRoot
     xml:space="preserve"
     id="flowRoot3841"
     style="fill:black;fill-opacity:1;stroke:none;font-family:sans-serif;font-style:normal;font-weight:normal;font-size:40px;line-height:1.25;letter-spacing:0px;word-spacing:0px"><flowRegion
       id="flowRegion3843"><rect
         id="rect3845"
         width="1474.4127"
         height="315.73868"
         x="385.25909"
         y="20.81106" /></flowRegion><flowPara
       id="flowPara3847" /></flowRoot>  <g
     style="fill:#ffffff"
     transform="matrix(1.542,-1.542,1.542,1.542,-346.1659,-138.49505)"
     id="g294">
    <g
       style="fill:#ffffff"
       transform="rotate(90,84.232,171.06)"
       id="g292">
      <g
         style="fill:#ffffff"
         transform="translate(3.5487,90.195)"
         id="g290">
        <path
           style="fill:#ffffff;stroke-width:0.67821002"
           inkscape:connector-curvature="0"
           transform="matrix(0.24077,-0.24077,0.24077,0.24077,-195.37,-625.87)"
           d="m -1131,2116.8 c 0.3194,0.6158 0.6375,1.2141 0.9684,1.8254 1.3704,2.5314 2.8391,5.0227 4.4121,7.457 1.5731,2.4344 3.2495,4.8124 5.0352,7.1172 1.0233,1.3208 2.092,2.6283 3.1878,3.8981 l 26.029,-26.025 c 11.08,4.3852 23.705,1.7722 32.135,-6.6504 7.0913,-7.4538 11.482,-24.489 6.4824,-33.27 -0.9273,-1.6061 -2.1242,-0.8523 -2.6035,-0.373 l -16.664,17.371 c -2.3586,2.1955 -8.4077,0.2937 -12.252,-1.1231 -1.4167,-3.8442 -3.3205,-9.8933 -1.125,-12.252 l 17.373,-16.664 c 0.4793,-0.4793 1.233,-1.6762 -0.3731,-2.6035 -2.7438,-1.5623 -6.2935,-2.208 -10.105,-2.1406 -8.3861,0.1483 -18.04,3.7458 -23.164,8.6211 -8.4226,8.4296 -11.036,21.057 -6.6504,32.137 z"
           id="path288" />
      </g>
    </g>
  </g>
  <g
     transform="matrix(0.47463004,0,0,0.47463004,166.7496,-96.892584)"
     id="g368">
    <g
       id="g310"
       style="fill:#3498db">
      <path
         id="path296"
         style="font-variant-ligatures:normal;font-variant-caps:normal;font-variant-numeric:normal"
         d="m 115.46,273.28 v -52.215 h 24.168 q 7.6085,0 12.308,4.401 4.774,4.3264 4.774,11.264 0,6.8626 -4.774,11.189 -4.774,4.3264 -12.308,4.3264 h -16.336 v 21.035 z m 23.348,-45.353 h -15.515 v 17.679 h 15.515 q 4.5502,0 7.2356,-2.387 2.76,-2.4616 2.76,-6.4896 0,-4.0281 -2.76,-6.415 -2.6854,-2.387 -7.2356,-2.387 z"
         inkscape:connector-curvature="0" />
      <path
         id="path298"
         style="font-variant-ligatures:normal;font-variant-caps:normal;font-variant-numeric:normal"
         d="m 160.91,273.28 v -37.968 h 7.4594 v 4.8486 q 1.7157,-2.76 4.401,-4.1772 2.6854,-1.4919 6.0421,-1.4919 1.1935,0 2.0886,0.14919 0.89512,0.14918 1.7156,0.44756 v 6.7134 q -1.0443,-0.37297 -2.1632,-0.59675 -1.1189,-0.22378 -2.2378,-0.22378 -3.2821,0 -5.8929,1.7902 -2.5362,1.7156 -3.9535,5.147 v 25.362 z"
         inkscape:connector-curvature="0" />
      <path
         id="path300"
         style="font-variant-ligatures:normal;font-variant-caps:normal;font-variant-numeric:normal"
         d="m 189.41,229.2 q -1.8648,0 -3.2075,-1.3427 -1.3427,-1.4173 -1.3427,-3.2821 0,-1.8648 1.3427,-3.2075 1.3427,-1.4173 3.2075,-1.4173 1.8648,0 3.2075,1.4173 1.4173,1.3427 1.4173,3.2075 0,1.8648 -1.4173,3.2821 -1.3427,1.3427 -3.2075,1.3427 z m 3.7297,6.1167 v 37.968 h -7.4594 v -37.968 z"
         inkscape:connector-curvature="0" />
      <path
         id="path302"
         style="font-variant-ligatures:normal;font-variant-caps:normal;font-variant-numeric:normal"
         d="m 211.33,273.28 -16.411,-37.968 h 8.2053 l 11.86,28.42 11.86,-28.42 h 7.9815 l -16.411,37.968 z"
         inkscape:connector-curvature="0" />
      <path
         id="path304"
         style="font-variant-ligatures:normal;font-variant-caps:normal;font-variant-numeric:normal"
         d="m 248.56,273.96 q -6.1913,0 -10.07,-3.2075 -3.8787,-3.2075 -3.8789,-8.3545 0,-5.3707 4.1026,-8.4291 4.1026,-3.1329 11.264,-3.1329 2.76,0 5.3707,0.59675 2.6108,0.52215 4.9978,1.4919 v -4.0281 q 0,-4.028 -2.387,-6.0421 -2.387,-2.014 -6.8626,-2.014 -2.6108,0 -5.4453,0.82053 -2.8346,0.74594 -6.3404,2.387 l -2.76,-5.5945 q 4.2518,-2.014 8.0561,-2.9092 3.8043,-0.96972 7.534,-0.96972 7.3848,0 11.413,3.5805 4.1027,3.5059 4.1027,9.9955 v 25.138 h -7.3102 v -3.2821 q -2.5362,2.014 -5.4453,2.9837 -2.9092,0.96971 -6.3404,0.96971 z m -6.788,-11.711 q 0,2.76 2.3124,4.4756 2.387,1.7156 6.1913,1.7156 2.9837,0 5.5199,-0.89512 2.5362,-0.89512 4.5502,-2.6854 v -6.5642 q -2.1632,-1.1935 -4.5502,-1.7156 -2.387,-0.59675 -5.2216,-0.59675 -4.028,0 -6.415,1.7156 -2.387,1.7156 -2.387,4.5502 z"
         inkscape:connector-curvature="0" />
      <path
         id="path306"
         style="font-variant-ligatures:normal;font-variant-caps:normal;font-variant-numeric:normal"
         d="m 291.4,267.39 q 2.8346,0 5.3707,-1.1189 2.5362,-1.1935 4.8486,-3.5059 l 4.4756,4.8486 q -2.9837,2.9837 -6.8626,4.6994 -3.8789,1.641 -8.1307,1.641 -4.1026,0 -7.6831,-1.4919 -3.5805,-1.5665 -6.1913,-4.1772 -2.6108,-2.6108 -4.1772,-6.1913 -1.4918,-3.6551 -1.4918,-7.8323 0,-4.1026 1.4918,-7.6831 1.5665,-3.6551 4.1772,-6.2658 2.6108,-2.6854 6.1913,-4.1772 3.5805,-1.5665 7.6831,-1.5665 4.2518,0 8.2799,1.7156 4.0281,1.6411 7.0118,4.6248 l -4.6994,5.0724 q -2.1632,-2.3124 -4.8486,-3.5059 -2.6854,-1.2681 -5.5945,-1.2681 -5.1469,0 -8.7274,3.8043 -3.5805,3.8043 -3.5805,9.2496 0,5.5945 3.5805,9.3988 3.6551,3.7297 8.8766,3.7297 z"
         inkscape:connector-curvature="0" />
      <path
         id="path308"
         style="font-variant-ligatures:normal;font-variant-caps:normal;font-variant-numeric:normal"
         d="m 318.75,276.86 1.4919,-3.4313 -15.142,-38.117 h 8.2053 l 11.114,29.017 12.233,-29.017 h 8.0561 l -18.35,42.518 q -2.6107,6.0421 -5.9675,8.6528 -3.3567,2.6854 -8.5783,2.6854 -1.1935,0 -2.2378,-0.14919 -0.9697,-0.0746 -1.7156,-0.29837 v -6.5642 q 0.74594,0.14919 1.4919,0.22379 0.82053,0.0746 1.8648,0.0746 2.5362,0 4.401,-1.4173 1.9394,-1.3427 3.1329,-4.1772 z"
         inkscape:connector-curvature="0" />
    </g>
    <g
       id="g322"
       style="fill:#8a9595">
      <path
         id="path312"
         style="font-variant-ligatures:normal;font-variant-caps:normal;font-variant-numeric:normal"
         d="m 343.3,228.01 v -6.9372 h 44.532 v 6.9372 h -18.35 v 45.278 h -7.8323 V 228.01 Z"
         inkscape:connector-curvature="0" />
      <path
         id="path314"
         style="font-variant-ligatures:normal;font-variant-caps:normal;font-variant-numeric:normal"
         d="m 379.84,254.26 q 0,-4.1026 1.4919,-7.6831 1.5665,-3.6551 4.2518,-6.2658 2.6854,-2.6854 6.2659,-4.1772 3.6551,-1.5665 7.7577,-1.5665 4.1027,0 7.6832,1.5665 3.6551,1.4919 6.2658,4.1772 2.6854,2.6108 4.1772,6.2658 1.5665,3.5805 1.5665,7.6831 0,4.1772 -1.5665,7.8323 -1.4918,3.5805 -4.1772,6.2659 -2.6108,2.6108 -6.2658,4.1772 -3.5805,1.4919 -7.6832,1.4919 -4.1026,0 -7.7577,-1.4919 -3.5805,-1.5665 -6.2659,-4.1772 -2.6854,-2.6854 -4.2518,-6.2659 -1.4919,-3.6551 -1.4919,-7.8323 z m 19.767,13.203 q 5.147,0 8.7274,-3.8043 3.6551,-3.8789 3.6551,-9.3988 0,-5.5199 -3.6551,-9.3242 -3.5805,-3.8043 -8.7274,-3.8043 -5.1469,0 -8.802,3.8043 -3.6551,3.8043 -3.6551,9.3242 0,5.5199 3.5805,9.3988 3.6551,3.8043 8.8766,3.8043 z"
         inkscape:connector-curvature="0" />
      <path
         id="path316"
         style="font-variant-ligatures:normal;font-variant-caps:normal;font-variant-numeric:normal"
         d="m 421.96,254.26 q 0,-4.1026 1.4918,-7.6831 1.5665,-3.6551 4.2518,-6.2658 2.6854,-2.6854 6.2659,-4.1772 3.6551,-1.5665 7.7577,-1.5665 4.1026,0 7.6831,1.5665 3.6551,1.4919 6.2659,4.1772 2.6854,2.6108 4.1772,6.2658 1.5664,3.5805 1.5664,7.6831 0,4.1772 -1.5664,7.8323 -1.4919,3.5805 -4.1772,6.2659 -2.6108,2.6108 -6.2659,4.1772 -3.5805,1.4919 -7.6831,1.4919 -4.1026,0 -7.7577,-1.4919 -3.5805,-1.5665 -6.2659,-4.1772 -2.6854,-2.6854 -4.2518,-6.2659 -1.4918,-3.6551 -1.4918,-7.8323 z m 19.767,13.203 q 5.1469,0 8.7274,-3.8043 3.6551,-3.8789 3.6551,-9.3988 0,-5.5199 -3.6551,-9.3242 -3.5805,-3.8043 -8.7274,-3.8043 -5.147,0 -8.802,3.8043 -3.6551,3.8043 -3.6551,9.3242 0,5.5199 3.5805,9.3988 3.6551,3.8043 8.8766,3.8043 z"
         inkscape:connector-curvature="0" />
      <path
         id="path318"
         style="font-variant-ligatures:normal;font-variant-caps:normal;font-variant-numeric:normal"
         d="m 473.1,219.43 v 53.857 h -7.4594 v -52.215 z"
         inkscape:connector-curvature="0" />
      <path
         id="path320"
         style="font-variant-ligatures:normal;font-variant-caps:normal;font-variant-numeric:normal"
         d="m 475.48,268.36 4.0281,-4.9232 q 2.9837,2.3124 6.0421,3.5805 3.1329,1.1935 6.3405,1.1935 4.028,0 6.5642,-1.5665 2.5362,-1.5665 2.5362,-4.1026 0,-2.014 -1.4919,-3.2075 -1.4919,-1.1935 -4.6248,-1.6411 l -6.8626,-0.96971 q -5.5945,-0.82053 -8.5037,-3.4313 -2.8346,-2.6854 -2.8346,-7.0864 0,-5.147 4.1026,-8.2799 4.1027,-3.2075 10.741,-3.2075 4.1772,0 7.9069,1.1935 3.8043,1.1935 7.3848,3.6551 l -3.8043,4.9232 q -3.1329,-2.0886 -6.1167,-2.9837 -2.9091,-0.96971 -5.8929,-0.96971 -3.4313,0 -5.5199,1.4173 -2.0886,1.4173 -2.0886,3.7297 0,2.0886 1.4173,3.2075 1.4919,1.0443 4.8486,1.5665 l 6.8626,0.96972 q 5.5945,0.82052 8.5037,3.5059 2.9837,2.6854 2.9837,7.0864 0,2.5362 -1.2681,4.774 -1.1935,2.1632 -3.3567,3.7297 -2.0886,1.5665 -4.9978,2.5362 -2.9092,0.89512 -6.2658,0.89512 -4.9232,0 -9.2496,-1.4173 -4.2518,-1.4173 -7.3848,-4.1772 z"
         inkscape:connector-curvature="0" />
    </g>
  </g>
</svg>
