<?xml version="1.0" encoding="UTF-8" standalone="no"?>
<svg
   xmlns:dc="http://purl.org/dc/elements/1.1/"
   xmlns:cc="http://creativecommons.org/ns#"
   xmlns:rdf="http://www.w3.org/1999/02/22-rdf-syntax-ns#"
   xmlns:svg="http://www.w3.org/2000/svg"
   xmlns="http://www.w3.org/2000/svg"
   xmlns:sodipodi="http://sodipodi.sourceforge.net/DTD/sodipodi-0.dtd"
   xmlns:inkscape="http://www.inkscape.org/namespaces/inkscape"
   width="1200"
   height="640"
   version="1.1"
   viewBox="0 0 317.5 169.33"
   id="svg46"
   sodipodi:docname="vertical-zh.svg"
   inkscape:version="0.92.4 (5da689c313, 2019-01-14)">
  <metadata
     id="metadata52">
    <rdf:RDF>
      <cc:Work
         rdf:about="">
        <dc:format>image/svg+xml</dc:format>
        <dc:type
           rdf:resource="http://purl.org/dc/dcmitype/StillImage" />
        <dc:title></dc:title>
      </cc:Work>
    </rdf:RDF>
  </metadata>
  <defs
     id="defs50" />
  <sodipodi:namedview
     pagecolor="#ffffff"
     bordercolor="#666666"
     borderopacity="1"
     objecttolerance="10"
     gridtolerance="10"
     guidetolerance="10"
     inkscape:pageopacity="0"
     inkscape:pageshadow="2"
     inkscape:window-width="1280"
     inkscape:window-height="737"
     id="namedview48"
     showgrid="false"
     inkscape:zoom="0.29166667"
     inkscape:cx="600"
     inkscape:cy="320"
     inkscape:window-x="-8"
     inkscape:window-y="-8"
     inkscape:window-maximized="1"
     inkscape:current-layer="g72" />
  <g
     transform="translate(0 -127.67)"
     id="g44">
    <g
       transform="matrix(1 0 0 1 112.9 -68.764)"
       id="g12">
      <path
         d="m45.85 196.43c-4.9486 0.2404-30.479 8.5091-42.251 14.888-1.6938 0.91832-3.5528 4.0713-3.5615 5.4544 0 12.656 3.047 31.326 11.656 47.913l16.845-16.837c-3.2563-8.2276-1.3156-17.604 4.9387-23.863 3.8052-3.6202 10.973-6.2916 17.201-6.4017 2.8306-0.05 5.4665 0.42947 7.5039 1.5896 1.1926 0.68857 0.63289 1.5773 0.27698 1.9332l-12.901 12.374c-1.6303 1.7514-0.21689 6.2431 0.83509 9.0976 2.8546 1.0521 7.3468 2.4644 9.0982 0.83406l12.374-12.899c0.35591-0.35591 1.2446-0.91564 1.9332 0.27698 3.7123 6.52 0.45205 19.17-4.8137 24.704-6.2595 6.2543-15.634 8.195-23.862 4.9387l-19.329 19.325c6.2847 7.281 14.195 13.367 24.054 17.213 35.648-13.908 45.813-57.085 45.813-80.199-0.01-1.3832-1.8677-4.5366-3.5615-5.4544-11.772-6.3788-37.301-14.647-42.25-14.888z"
         fill="#3498db"
         stroke-width=".86794"
         id="path2" />
      <g
         transform="matrix(1.542,-1.542,1.542,1.542,-206.27,74.459)"
         fill="#fff"
         id="g10">
        <g
           transform="rotate(90,84.232,171.06)"
           fill="#fff"
           id="g8">
          <g
             transform="translate(3.5487,90.195)"
             fill="#fff"
             id="g6">
            <path
               transform="matrix(.24077 -.24077 .24077 .24077 -195.37 -625.87)"
               d="m-1131 2116.8c0.3194 0.6158 0.6375 1.2141 0.9684 1.8254 1.3704 2.5314 2.8391 5.0227 4.4121 7.457 1.5731 2.4344 3.2495 4.8124 5.0352 7.1172 1.0233 1.3208 2.092 2.6283 3.1878 3.8981l26.029-26.025c11.08 4.3852 23.705 1.7722 32.135-6.6504 7.0913-7.4538 11.482-24.489 6.4824-33.27-0.9273-1.6061-2.1242-0.8523-2.6035-0.373l-16.664 17.371c-2.3586 2.1955-8.4077 0.2937-12.252-1.1231-1.4167-3.8442-3.3205-9.8933-1.125-12.252l17.373-16.664c0.4793-0.4793 1.233-1.6762-0.3731-2.6035-2.7438-1.5623-6.2935-2.208-10.105-2.1406-8.3861 0.1483-18.04 3.7458-23.164 8.6211-8.4226 8.4296-11.036 21.057-6.6504 32.137z"
               fill="#fff"
               stroke-width=".67821"
               id="path4" />
          </g>
        </g>
      </g>
    </g>
    <g
       id="g72">
      <text
         xml:space="preserve"
         style="font-style:normal;font-weight:normal;font-size:51.20720291px;line-height:1.25;font-family:sans-serif;letter-spacing:0px;word-spacing:0px;fill:#8a9595;fill-opacity:1;stroke:none;stroke-width:1.2801801"
         x="8.543355"
         y="253.87862"
         id="text78"
         transform="scale(0.90156739,1.1091794)"><tspan
           sodipodi:role="line"
           x="8.543355"
           y="253.87862"
           id="tspan76"
           style="stroke-width:1.2801801"><tspan
             x="8.543355"
             y="253.87862"
             style="font-style:normal;font-variant:normal;font-weight:normal;font-stretch:normal;font-family:'Microsoft YaHei';-inkscape-font-specification:'Microsoft YaHei';stroke-width:1.2801801"
             id="tspan74">網路隱私</tspan></tspan></text>
      <text
         inkscape:transform-center-x="-6.8363143e-06"
         inkscape:transform-center-y="-5.6390529"
         transform="scale(1.0305457,0.97035969)"
         id="text64"
         y="288.50894"
         x="187.68109"
         style="font-style:normal;font-weight:normal;font-size:58.16809845px;line-height:1.25;font-family:sans-serif;letter-spacing:0px;word-spacing:0px;fill:#3498db;fill-opacity:1;stroke:none;stroke-width:1.45420229"
         xml:space="preserve"><tspan
           style="font-style:normal;font-variant:normal;font-weight:normal;font-stretch:normal;font-family:'Microsoft YaHei';-inkscape-font-specification:'Microsoft YaHei';fill:#3498db;fill-opacity:1;stroke-width:1.45420229"
           y="288.50894"
           x="187.68109"
           id="tspan62"
           sodipodi:role="line">工具</tspan></text>
    </g>
  </g>
</svg>
