<?xml version="1.0" encoding="UTF-8" standalone="no"?>
<svg
   xmlns:dc="http://purl.org/dc/elements/1.1/"
   xmlns:cc="http://creativecommons.org/ns#"
   xmlns:rdf="http://www.w3.org/1999/02/22-rdf-syntax-ns#"
   xmlns:svg="http://www.w3.org/2000/svg"
   xmlns="http://www.w3.org/2000/svg"
   xmlns:sodipodi="http://sodipodi.sourceforge.net/DTD/sodipodi-0.dtd"
   xmlns:inkscape="http://www.inkscape.org/namespaces/inkscape"
   width="1200"
   height="640"
   version="1.1"
   viewBox="0 0 317.5 169.33"
   id="svg46"
   sodipodi:docname="vertical.svg"
   inkscape:version="0.92.4 (5da689c313, 2019-01-14)">
  <metadata
     id="metadata52">
    <rdf:RDF>
      <cc:Work
         rdf:about="">
        <dc:format>image/svg+xml</dc:format>
        <dc:type
           rdf:resource="http://purl.org/dc/dcmitype/StillImage" />
        <dc:title />
      </cc:Work>
    </rdf:RDF>
  </metadata>
  <defs
     id="defs50" />
  <sodipodi:namedview
     pagecolor="#ffffff"
     bordercolor="#666666"
     borderopacity="1"
     objecttolerance="10"
     gridtolerance="10"
     guidetolerance="10"
     inkscape:pageopacity="0"
     inkscape:pageshadow="2"
     inkscape:window-width="1280"
     inkscape:window-height="737"
     id="namedview48"
     showgrid="false"
     inkscape:zoom="0.58333333"
     inkscape:cx="457.08313"
     inkscape:cy="320"
     inkscape:window-x="-8"
     inkscape:window-y="-8"
     inkscape:window-maximized="1"
     inkscape:current-layer="g12" />
  <g
     transform="translate(0 -127.67)"
     id="g44">
    <g
       transform="matrix(1 0 0 1 112.9 -68.764)"
       id="g12">
      <path
         d="m 45.850495,199.15162 c -4.9486,0.2404 -30.479,8.5091 -42.2510002,14.888 -1.6938,0.91832 -3.55279994,4.0713 -3.56149994,5.4544 0,12.656 3.04699994,31.326 11.65600014,47.913 l 16.845,-16.837 c -3.2563,-8.2276 -1.3156,-17.604 4.9387,-23.863 3.8052,-3.6202 10.973,-6.2916 17.201,-6.4017 2.8306,-0.05 5.4665,0.42947 7.5039,1.5896 1.1926,0.68857 0.63289,1.5773 0.27698,1.9332 l -12.901,12.374 c -1.6303,1.7514 -0.21689,6.2431 0.83509,9.0976 2.8546,1.0521 7.3468,2.4644 9.0982,0.83406 l 12.374,-12.899 c 0.35591,-0.35591 1.2446,-0.91564 1.9332,0.27698 3.7123,6.52 0.45205,19.17 -4.8137,24.704 -6.2595,6.2543 -15.634,8.195 -23.862,4.9387 l -19.329,19.325 c 6.2847,7.281 14.195,13.367 24.054,17.213 35.648,-13.908 45.813,-57.085 45.813,-80.199 -0.01,-1.3832 -1.8677,-4.5366 -3.5615,-5.4544 -11.772,-6.3788 -37.301,-14.647 -42.25,-14.888 z"
         id="path2"
         inkscape:connector-curvature="0"
         style="fill:#3498db;stroke-width:0.86794001" />
      <g
         transform="matrix(1.542,-1.542,1.542,1.542,-206.27,74.459)"
         id="g10"
         fill="#fff">
        <g
           transform="rotate(90,84.232,171.06)"
           id="g8"
           fill="#fff">
          <g
             transform="translate(3.5487,90.195)"
             id="g6"
             fill="#fff">
            <path
               d="m 42.8635,156.98525 c 0.225168,0.0714 0.44581,0.13882 0.672664,0.20634 0.939436,0.27953 1.892885,0.52574 2.857723,0.73312 0.964886,0.20737 1.941063,0.3763 2.925933,0.50128 0.564389,0.0716 1.136507,0.12912 1.706072,0.17102 l 9.63e-4,-12.53304 c 3.723557,-1.61191 6.134146,-5.28076 6.135928,-9.33836 -0.08728,-3.50203 -3.131696,-8.66074 -6.449651,-9.57119 -0.609967,-0.16343 -0.716652,0.30624 -0.716652,0.53704 l 0.170225,8.1946 c -0.03927,1.0965 -1.953608,2.09504 -3.220323,2.67951 -1.266667,-0.58447 -3.181487,-1.58253 -3.220781,-2.67905 l 0.170706,-8.19509 c 0,-0.2308 -0.106709,-0.70044 -0.716676,-0.53701 -1.036779,0.28447 -2.046906,0.98367 -2.948373,1.91759 -1.983415,2.05483 -3.441614,5.24537 -3.501494,7.6529 0.0017,4.0575 2.412756,7.72703 6.136409,9.33884 z"
               id="path4"
               inkscape:connector-curvature="0"
               style="fill:#ffffff;stroke-width:0.23093064" />
          </g>
        </g>
      </g>
    </g>
    <g
       id="g72"
       transform="matrix(0.99376413,0,0,0.86723978,0.58643595,36.966857)">
      <text
         xml:space="preserve"
         style="font-style:normal;font-weight:normal;font-size:51.20720291px;line-height:1.25;font-family:sans-serif;letter-spacing:0px;word-spacing:0px;fill:#8a9595;fill-opacity:1;stroke:none;stroke-width:1.2801801"
         x="8.543355"
         y="253.87862"
         id="text78"
         transform="scale(0.90156739,1.1091794)"><tspan
           sodipodi:role="line"
           x="8.543355"
           y="253.87862"
           id="tspan76"
           style="stroke-width:1.2801801"><tspan
             x="8.543355"
             y="253.87862"
             style="font-style:normal;font-variant:normal;font-weight:normal;font-stretch:normal;font-family:'Microsoft YaHei';-inkscape-font-specification:'Microsoft YaHei';stroke-width:1.2801801"
             id="tspan74">網路隱私</tspan></tspan></text>
      <text
         inkscape:transform-center-x="-6.8363143e-06"
         inkscape:transform-center-y="-5.6390529"
         transform="scale(1.0305457,0.97035969)"
         id="text64"
         y="288.50894"
         x="187.68109"
         style="font-style:normal;font-weight:normal;font-size:58.16809845px;line-height:1.25;font-family:sans-serif;letter-spacing:0px;word-spacing:0px;fill:#3498db;fill-opacity:1;stroke:none;stroke-width:1.45420229"
         xml:space="preserve"><tspan
           style="font-style:normal;font-variant:normal;font-weight:normal;font-stretch:normal;font-family:'Microsoft YaHei';-inkscape-font-specification:'Microsoft YaHei';fill:#3498db;fill-opacity:1;stroke-width:1.45420229"
           y="288.50894"
           x="187.68109"
           id="tspan62"
           sodipodi:role="line">工具</tspan></text>
    </g>
    <g
       transform="matrix(0.28601565,0,0,0.28601565,159.22385,151.92354)"
       id="g368">
      <g
         id="g310"
         style="fill:#3498db">
        <path
           id="path296"
           style="font-variant-ligatures:normal;font-variant-caps:normal;font-variant-numeric:normal"
           d="m 115.46,273.28 v -52.215 h 24.168 q 7.6085,0 12.308,4.401 4.774,4.3264 4.774,11.264 0,6.8626 -4.774,11.189 -4.774,4.3264 -12.308,4.3264 h -16.336 v 21.035 z m 23.348,-45.353 h -15.515 v 17.679 h 15.515 q 4.5502,0 7.2356,-2.387 2.76,-2.4616 2.76,-6.4896 0,-4.0281 -2.76,-6.415 -2.6854,-2.387 -7.2356,-2.387 z"
           inkscape:connector-curvature="0" />
        <path
           id="path298"
           style="font-variant-ligatures:normal;font-variant-caps:normal;font-variant-numeric:normal"
           d="m 160.91,273.28 v -37.968 h 7.4594 v 4.8486 q 1.7157,-2.76 4.401,-4.1772 2.6854,-1.4919 6.0421,-1.4919 1.1935,0 2.0886,0.14919 0.89512,0.14918 1.7156,0.44756 v 6.7134 q -1.0443,-0.37297 -2.1632,-0.59675 -1.1189,-0.22378 -2.2378,-0.22378 -3.2821,0 -5.8929,1.7902 -2.5362,1.7156 -3.9535,5.147 v 25.362 z"
           inkscape:connector-curvature="0" />
        <path
           id="path300"
           style="font-variant-ligatures:normal;font-variant-caps:normal;font-variant-numeric:normal"
           d="m 189.41,229.2 q -1.8648,0 -3.2075,-1.3427 -1.3427,-1.4173 -1.3427,-3.2821 0,-1.8648 1.3427,-3.2075 1.3427,-1.4173 3.2075,-1.4173 1.8648,0 3.2075,1.4173 1.4173,1.3427 1.4173,3.2075 0,1.8648 -1.4173,3.2821 -1.3427,1.3427 -3.2075,1.3427 z m 3.7297,6.1167 v 37.968 h -7.4594 v -37.968 z"
           inkscape:connector-curvature="0" />
        <path
           id="path302"
           style="font-variant-ligatures:normal;font-variant-caps:normal;font-variant-numeric:normal"
           d="m 211.33,273.28 -16.411,-37.968 h 8.2053 l 11.86,28.42 11.86,-28.42 h 7.9815 l -16.411,37.968 z"
           inkscape:connector-curvature="0" />
        <path
           id="path304"
           style="font-variant-ligatures:normal;font-variant-caps:normal;font-variant-numeric:normal"
           d="m 248.56,273.96 q -6.1913,0 -10.07,-3.2075 -3.8787,-3.2075 -3.8789,-8.3545 0,-5.3707 4.1026,-8.4291 4.1026,-3.1329 11.264,-3.1329 2.76,0 5.3707,0.59675 2.6108,0.52215 4.9978,1.4919 v -4.0281 q 0,-4.028 -2.387,-6.0421 -2.387,-2.014 -6.8626,-2.014 -2.6108,0 -5.4453,0.82053 -2.8346,0.74594 -6.3404,2.387 l -2.76,-5.5945 q 4.2518,-2.014 8.0561,-2.9092 3.8043,-0.96972 7.534,-0.96972 7.3848,0 11.413,3.5805 4.1027,3.5059 4.1027,9.9955 v 25.138 h -7.3102 v -3.2821 q -2.5362,2.014 -5.4453,2.9837 -2.9092,0.96971 -6.3404,0.96971 z m -6.788,-11.711 q 0,2.76 2.3124,4.4756 2.387,1.7156 6.1913,1.7156 2.9837,0 5.5199,-0.89512 2.5362,-0.89512 4.5502,-2.6854 v -6.5642 q -2.1632,-1.1935 -4.5502,-1.7156 -2.387,-0.59675 -5.2216,-0.59675 -4.028,0 -6.415,1.7156 -2.387,1.7156 -2.387,4.5502 z"
           inkscape:connector-curvature="0" />
        <path
           id="path306"
           style="font-variant-ligatures:normal;font-variant-caps:normal;font-variant-numeric:normal"
           d="m 291.4,267.39 q 2.8346,0 5.3707,-1.1189 2.5362,-1.1935 4.8486,-3.5059 l 4.4756,4.8486 q -2.9837,2.9837 -6.8626,4.6994 -3.8789,1.641 -8.1307,1.641 -4.1026,0 -7.6831,-1.4919 -3.5805,-1.5665 -6.1913,-4.1772 -2.6108,-2.6108 -4.1772,-6.1913 -1.4918,-3.6551 -1.4918,-7.8323 0,-4.1026 1.4918,-7.6831 1.5665,-3.6551 4.1772,-6.2658 2.6108,-2.6854 6.1913,-4.1772 3.5805,-1.5665 7.6831,-1.5665 4.2518,0 8.2799,1.7156 4.0281,1.6411 7.0118,4.6248 l -4.6994,5.0724 q -2.1632,-2.3124 -4.8486,-3.5059 -2.6854,-1.2681 -5.5945,-1.2681 -5.1469,0 -8.7274,3.8043 -3.5805,3.8043 -3.5805,9.2496 0,5.5945 3.5805,9.3988 3.6551,3.7297 8.8766,3.7297 z"
           inkscape:connector-curvature="0" />
        <path
           id="path308"
           style="font-variant-ligatures:normal;font-variant-caps:normal;font-variant-numeric:normal"
           d="m 318.75,276.86 1.4919,-3.4313 -15.142,-38.117 h 8.2053 l 11.114,29.017 12.233,-29.017 h 8.0561 l -18.35,42.518 q -2.6107,6.0421 -5.9675,8.6528 -3.3567,2.6854 -8.5783,2.6854 -1.1935,0 -2.2378,-0.14919 -0.9697,-0.0746 -1.7156,-0.29837 v -6.5642 q 0.74594,0.14919 1.4919,0.22379 0.82053,0.0746 1.8648,0.0746 2.5362,0 4.401,-1.4173 1.9394,-1.3427 3.1329,-4.1772 z"
           inkscape:connector-curvature="0" />
      </g>
      <g
         id="g322"
         style="fill:#8a9595">
        <path
           id="path312"
           style="font-variant-ligatures:normal;font-variant-caps:normal;font-variant-numeric:normal"
           d="m 343.3,228.01 v -6.9372 h 44.532 v 6.9372 h -18.35 v 45.278 h -7.8323 V 228.01 Z"
           inkscape:connector-curvature="0" />
        <path
           id="path314"
           style="font-variant-ligatures:normal;font-variant-caps:normal;font-variant-numeric:normal"
           d="m 379.84,254.26 q 0,-4.1026 1.4919,-7.6831 1.5665,-3.6551 4.2518,-6.2658 2.6854,-2.6854 6.2659,-4.1772 3.6551,-1.5665 7.7577,-1.5665 4.1027,0 7.6832,1.5665 3.6551,1.4919 6.2658,4.1772 2.6854,2.6108 4.1772,6.2658 1.5665,3.5805 1.5665,7.6831 0,4.1772 -1.5665,7.8323 -1.4918,3.5805 -4.1772,6.2659 -2.6108,2.6108 -6.2658,4.1772 -3.5805,1.4919 -7.6832,1.4919 -4.1026,0 -7.7577,-1.4919 -3.5805,-1.5665 -6.2659,-4.1772 -2.6854,-2.6854 -4.2518,-6.2659 -1.4919,-3.6551 -1.4919,-7.8323 z m 19.767,13.203 q 5.147,0 8.7274,-3.8043 3.6551,-3.8789 3.6551,-9.3988 0,-5.5199 -3.6551,-9.3242 -3.5805,-3.8043 -8.7274,-3.8043 -5.1469,0 -8.802,3.8043 -3.6551,3.8043 -3.6551,9.3242 0,5.5199 3.5805,9.3988 3.6551,3.8043 8.8766,3.8043 z"
           inkscape:connector-curvature="0" />
        <path
           id="path316"
           style="font-variant-ligatures:normal;font-variant-caps:normal;font-variant-numeric:normal"
           d="m 421.96,254.26 q 0,-4.1026 1.4918,-7.6831 1.5665,-3.6551 4.2518,-6.2658 2.6854,-2.6854 6.2659,-4.1772 3.6551,-1.5665 7.7577,-1.5665 4.1026,0 7.6831,1.5665 3.6551,1.4919 6.2659,4.1772 2.6854,2.6108 4.1772,6.2658 1.5664,3.5805 1.5664,7.6831 0,4.1772 -1.5664,7.8323 -1.4919,3.5805 -4.1772,6.2659 -2.6108,2.6108 -6.2659,4.1772 -3.5805,1.4919 -7.6831,1.4919 -4.1026,0 -7.7577,-1.4919 -3.5805,-1.5665 -6.2659,-4.1772 -2.6854,-2.6854 -4.2518,-6.2659 -1.4918,-3.6551 -1.4918,-7.8323 z m 19.767,13.203 q 5.1469,0 8.7274,-3.8043 3.6551,-3.8789 3.6551,-9.3988 0,-5.5199 -3.6551,-9.3242 -3.5805,-3.8043 -8.7274,-3.8043 -5.147,0 -8.802,3.8043 -3.6551,3.8043 -3.6551,9.3242 0,5.5199 3.5805,9.3988 3.6551,3.8043 8.8766,3.8043 z"
           inkscape:connector-curvature="0" />
        <path
           id="path318"
           style="font-variant-ligatures:normal;font-variant-caps:normal;font-variant-numeric:normal"
           d="m 473.1,219.43 v 53.857 h -7.4594 v -52.215 z"
           inkscape:connector-curvature="0" />
        <path
           id="path320"
           style="font-variant-ligatures:normal;font-variant-caps:normal;font-variant-numeric:normal"
           d="m 475.48,268.36 4.0281,-4.9232 q 2.9837,2.3124 6.0421,3.5805 3.1329,1.1935 6.3405,1.1935 4.028,0 6.5642,-1.5665 2.5362,-1.5665 2.5362,-4.1026 0,-2.014 -1.4919,-3.2075 -1.4919,-1.1935 -4.6248,-1.6411 l -6.8626,-0.96971 q -5.5945,-0.82053 -8.5037,-3.4313 -2.8346,-2.6854 -2.8346,-7.0864 0,-5.147 4.1026,-8.2799 4.1027,-3.2075 10.741,-3.2075 4.1772,0 7.9069,1.1935 3.8043,1.1935 7.3848,3.6551 l -3.8043,4.9232 q -3.1329,-2.0886 -6.1167,-2.9837 -2.9091,-0.96971 -5.8929,-0.96971 -3.4313,0 -5.5199,1.4173 -2.0886,1.4173 -2.0886,3.7297 0,2.0886 1.4173,3.2075 1.4919,1.0443 4.8486,1.5665 l 6.8626,0.96972 q 5.5945,0.82052 8.5037,3.5059 2.9837,2.6854 2.9837,7.0864 0,2.5362 -1.2681,4.774 -1.1935,2.1632 -3.3567,3.7297 -2.0886,1.5665 -4.9978,2.5362 -2.9092,0.89512 -6.2658,0.89512 -4.9232,0 -9.2496,-1.4173 -4.2518,-1.4173 -7.3848,-4.1772 z"
           inkscape:connector-curvature="0" />
      </g>
    </g>
  </g>
</svg>
